<mxfile host="Electron" modified="2023-10-05T06:45:41.892Z" agent="Mozilla/5.0 (Windows NT 10.0; Win64; x64) AppleWebKit/537.36 (KHTML, like Gecko) draw.io/21.7.5 Chrome/114.0.5735.289 Electron/25.8.1 Safari/537.36" etag="r9YoRVWFy0_Wz0b-vJrA" version="21.7.5" type="device">
  <diagram name="Page-1" id="XNMfluaR_AncJgMEVoPT">
    <mxGraphModel dx="1402" dy="804" grid="1" gridSize="9.8425" guides="1" tooltips="1" connect="1" arrows="1" fold="1" page="1" pageScale="1" pageWidth="827" pageHeight="1169" background="none" math="0" shadow="0">
      <root>
        <mxCell id="0" />
        <mxCell id="1" parent="0" />
        <mxCell id="e-ZZepIqZLMy_GuxkdO2-1" value="&lt;font color=&quot;#ffffff&quot; style=&quot;font-size: 24px;&quot;&gt;&lt;b&gt;UML Class Diagram Reference Sheet&lt;/b&gt;&lt;/font&gt;" style="html=1;whiteSpace=wrap;rounded=1;arcSize=12;absoluteArcSize=1;fillColor=#2C6879;strokeColor=#464F55;" parent="1" vertex="1">
          <mxGeometry x="9.84" y="9.84" width="807.09" height="50" as="geometry" />
        </mxCell>
        <mxCell id="e-ZZepIqZLMy_GuxkdO2-2" value="" style="html=1;whiteSpace=wrap;rounded=1;arcSize=12;absoluteArcSize=1;fillColor=none;movable=0;resizable=0;rotatable=0;deletable=0;editable=0;locked=1;connectable=0;strokeColor=#464F55;" parent="1" vertex="1">
          <mxGeometry x="9.84" y="68.9" width="807.09" height="738.19" as="geometry" />
        </mxCell>
        <mxCell id="e-ZZepIqZLMy_GuxkdO2-4" value="" style="html=1;whiteSpace=wrap;rounded=1;arcSize=12;absoluteArcSize=1;fillColor=none;fontColor=#464F55;strokeColor=#464F55;" parent="1" vertex="1">
          <mxGeometry x="9.84" y="816.93" width="265.75" height="344.49" as="geometry" />
        </mxCell>
        <mxCell id="e-ZZepIqZLMy_GuxkdO2-5" value="" style="rounded=1;whiteSpace=wrap;html=1;fontColor=#464F55;strokeColor=#464F55;" parent="1" vertex="1">
          <mxGeometry x="34.29" y="895.6700000000001" width="19.68" height="236.21" as="geometry" />
        </mxCell>
        <mxCell id="e-ZZepIqZLMy_GuxkdO2-6" value="" style="rounded=1;whiteSpace=wrap;html=1;fontColor=#464F55;strokeColor=#464F55;" parent="1" vertex="1">
          <mxGeometry x="231.14" y="895.6700000000001" width="19.68" height="236.21" as="geometry" />
        </mxCell>
        <mxCell id="e-ZZepIqZLMy_GuxkdO2-7" value="" style="endArrow=none;endFill=0;endSize=12;html=1;rounded=0;comic=0;fontColor=#464F55;" parent="1" edge="1">
          <mxGeometry width="160" relative="1" as="geometry">
            <mxPoint x="231.14000000000001" y="905.51" as="sourcePoint" />
            <mxPoint x="53.92" y="905.85" as="targetPoint" />
          </mxGeometry>
        </mxCell>
        <mxCell id="e-ZZepIqZLMy_GuxkdO2-8" value="Association" style="edgeLabel;html=1;align=center;verticalAlign=middle;resizable=0;points=[];imageVerticalAlign=top;imageAlign=center;fontColor=#464F55;" parent="e-ZZepIqZLMy_GuxkdO2-7" vertex="1" connectable="0">
          <mxGeometry x="-0.0458" relative="1" as="geometry">
            <mxPoint x="-4" y="-10" as="offset" />
          </mxGeometry>
        </mxCell>
        <mxCell id="e-ZZepIqZLMy_GuxkdO2-9" value="&lt;font style=&quot;font-size: 11px;&quot;&gt;Subclass&lt;br&gt;&lt;/font&gt;" style="text;html=1;strokeColor=none;fillColor=none;align=center;verticalAlign=middle;whiteSpace=wrap;rounded=0;rotation=-90;fontColor=#464F55;" parent="1" vertex="1">
          <mxGeometry x="210.51" y="998.78" width="60" height="30" as="geometry" />
        </mxCell>
        <mxCell id="e-ZZepIqZLMy_GuxkdO2-10" value="&lt;font style=&quot;font-size: 11px;&quot;&gt;Superclass&lt;br&gt;&lt;/font&gt;" style="text;html=1;strokeColor=none;fillColor=none;align=center;verticalAlign=middle;whiteSpace=wrap;rounded=0;rotation=-90;fontColor=#464F55;" parent="1" vertex="1">
          <mxGeometry x="14.922499999999998" y="1003.9324999999999" width="60" height="30" as="geometry" />
        </mxCell>
        <mxCell id="e-ZZepIqZLMy_GuxkdO2-15" value="Inheritance" style="endArrow=block;endSize=16;endFill=0;html=1;rounded=0;entryX=1.112;entryY=0.378;entryDx=0;entryDy=0;entryPerimeter=0;exitX=1;exitY=0.25;exitDx=0;exitDy=0;fontColor=#464F55;strokeColor=#464F55;" parent="1" edge="1">
          <mxGeometry x="-0.0031" y="-10" width="160" relative="1" as="geometry">
            <mxPoint x="230.80999999999992" y="934.8399999999998" as="sourcePoint" />
            <mxPoint x="53.974159999999955" y="936.0173800000001" as="targetPoint" />
            <mxPoint as="offset" />
          </mxGeometry>
        </mxCell>
        <mxCell id="necLX3WFX3FQcM-goMtb-1" value="&quot;is&quot;" style="edgeLabel;html=1;align=center;verticalAlign=middle;resizable=0;points=[];fontColor=#464F55;" parent="e-ZZepIqZLMy_GuxkdO2-15" vertex="1" connectable="0">
          <mxGeometry x="-0.1819" y="1" relative="1" as="geometry">
            <mxPoint x="-15" y="9" as="offset" />
          </mxGeometry>
        </mxCell>
        <mxCell id="e-ZZepIqZLMy_GuxkdO2-16" value="Realization" style="endArrow=block;endSize=16;endFill=0;html=1;rounded=0;entryX=1.112;entryY=0.378;entryDx=0;entryDy=0;entryPerimeter=0;exitX=1;exitY=0.25;exitDx=0;exitDy=0;dashed=1;fontColor=#464F55;strokeColor=#464F55;" parent="1" edge="1">
          <mxGeometry x="-0.0031" y="-10" width="160" relative="1" as="geometry">
            <mxPoint x="230.80249999999992" y="975.1924999999998" as="sourcePoint" />
            <mxPoint x="53.966659999999955" y="976.3698800000001" as="targetPoint" />
            <mxPoint as="offset" />
          </mxGeometry>
        </mxCell>
        <mxCell id="necLX3WFX3FQcM-goMtb-2" value="&quot;realizes&quot;" style="edgeLabel;html=1;align=center;verticalAlign=middle;resizable=0;points=[];fontColor=#464F55;" parent="e-ZZepIqZLMy_GuxkdO2-16" vertex="1" connectable="0">
          <mxGeometry x="0.0061" y="2" relative="1" as="geometry">
            <mxPoint x="1" y="8" as="offset" />
          </mxGeometry>
        </mxCell>
        <mxCell id="e-ZZepIqZLMy_GuxkdO2-18" value="Dependency" style="endArrow=none;endSize=12;dashed=1;html=1;rounded=0;exitX=-0.01;exitY=0.415;exitDx=0;exitDy=0;exitPerimeter=0;startArrow=open;startFill=0;endFill=0;startSize=12;fontColor=#464F55;strokeColor=#464F55;" parent="1" edge="1">
          <mxGeometry x="0.008" y="-10" width="160" relative="1" as="geometry">
            <mxPoint x="231.2031999999997" y="1018.6271499999999" as="sourcePoint" />
            <mxPoint x="54.23000000000001" y="1019.17" as="targetPoint" />
            <mxPoint as="offset" />
          </mxGeometry>
        </mxCell>
        <mxCell id="necLX3WFX3FQcM-goMtb-3" value="&quot;uses&quot;" style="edgeLabel;html=1;align=center;verticalAlign=middle;resizable=0;points=[];fontColor=#464F55;" parent="e-ZZepIqZLMy_GuxkdO2-18" vertex="1" connectable="0">
          <mxGeometry x="-0.0201" y="2" relative="1" as="geometry">
            <mxPoint x="-2" y="5" as="offset" />
          </mxGeometry>
        </mxCell>
        <mxCell id="e-ZZepIqZLMy_GuxkdO2-19" value="" style="endArrow=diamondThin;endFill=0;endSize=24;html=1;rounded=0;exitX=0.25;exitY=0.188;exitDx=0;exitDy=0;exitPerimeter=0;fontColor=#464F55;strokeColor=#464F55;" parent="1" edge="1">
          <mxGeometry width="160" relative="1" as="geometry">
            <mxPoint x="231.14000000000013" y="1062.9899999999998" as="sourcePoint" />
            <mxPoint x="53.960000000000015" y="1062.99" as="targetPoint" />
          </mxGeometry>
        </mxCell>
        <mxCell id="e-ZZepIqZLMy_GuxkdO2-20" value="Aggregation" style="edgeLabel;html=1;align=center;verticalAlign=middle;resizable=0;points=[];fontColor=#464F55;" parent="e-ZZepIqZLMy_GuxkdO2-19" vertex="1" connectable="0">
          <mxGeometry x="-0.0687" y="2" relative="1" as="geometry">
            <mxPoint x="-6" y="-12" as="offset" />
          </mxGeometry>
        </mxCell>
        <mxCell id="necLX3WFX3FQcM-goMtb-4" value="&quot;has&quot;" style="edgeLabel;html=1;align=center;verticalAlign=middle;resizable=0;points=[];fontColor=#464F55;" parent="e-ZZepIqZLMy_GuxkdO2-19" vertex="1" connectable="0">
          <mxGeometry x="-0.0277" y="2" relative="1" as="geometry">
            <mxPoint x="-7" y="8" as="offset" />
          </mxGeometry>
        </mxCell>
        <mxCell id="e-ZZepIqZLMy_GuxkdO2-21" value="" style="endArrow=diamondThin;endFill=1;endSize=24;html=1;rounded=0;exitX=0.014;exitY=0.708;exitDx=0;exitDy=0;exitPerimeter=0;fontColor=#464F55;strokeColor=#464F55;" parent="1" edge="1">
          <mxGeometry width="160" relative="1" as="geometry">
            <mxPoint x="231.1355199999998" y="1112.2066799999998" as="sourcePoint" />
            <mxPoint x="53.69000000000001" y="1112.29" as="targetPoint" />
          </mxGeometry>
        </mxCell>
        <mxCell id="e-ZZepIqZLMy_GuxkdO2-22" value="Composition" style="edgeLabel;html=1;align=center;verticalAlign=middle;resizable=0;points=[];fontColor=#464F55;" parent="e-ZZepIqZLMy_GuxkdO2-21" vertex="1" connectable="0">
          <mxGeometry x="-0.0088" relative="1" as="geometry">
            <mxPoint x="-1" y="-10" as="offset" />
          </mxGeometry>
        </mxCell>
        <mxCell id="necLX3WFX3FQcM-goMtb-5" value="&quot;owns&quot;" style="edgeLabel;html=1;align=center;verticalAlign=middle;resizable=0;points=[];fontColor=#464F55;" parent="e-ZZepIqZLMy_GuxkdO2-21" vertex="1" connectable="0">
          <mxGeometry x="0.0328" y="-1" relative="1" as="geometry">
            <mxPoint y="11" as="offset" />
          </mxGeometry>
        </mxCell>
        <mxCell id="e-ZZepIqZLMy_GuxkdO2-26" value="Relationships" style="html=1;whiteSpace=wrap;rounded=1;arcSize=12;absoluteArcSize=1;fontColor=#464F55;strokeColor=#464F55;" parent="1" vertex="1">
          <mxGeometry x="187.00999999999996" y="816.94" width="88.58" height="19.68" as="geometry" />
        </mxCell>
        <mxCell id="e-ZZepIqZLMy_GuxkdO2-27" value="&lt;font color=&quot;#464f55&quot;&gt;Elements&lt;/font&gt;" style="html=1;whiteSpace=wrap;rounded=1;arcSize=12;absoluteArcSize=1;strokeColor=#464F55;" parent="1" vertex="1">
          <mxGeometry x="748.03" y="68.9" width="68.9" height="19.68" as="geometry" />
        </mxCell>
        <mxCell id="e-ZZepIqZLMy_GuxkdO2-28" value="" style="html=1;whiteSpace=wrap;rounded=1;arcSize=12;absoluteArcSize=1;fillColor=none;fontColor=#464F55;strokeColor=#464F55;" parent="1" vertex="1">
          <mxGeometry x="280.03" y="816.93" width="265.75" height="344.48" as="geometry" />
        </mxCell>
        <mxCell id="e-ZZepIqZLMy_GuxkdO2-29" value="Multiplicity" style="html=1;whiteSpace=wrap;rounded=1;arcSize=12;absoluteArcSize=1;fontColor=#464F55;strokeColor=#464F55;" parent="1" vertex="1">
          <mxGeometry x="457.20250000000004" y="816.9325" width="88.58" height="19.68" as="geometry" />
        </mxCell>
        <mxCell id="e-ZZepIqZLMy_GuxkdO2-30" value="" style="shape=table;startSize=0;container=1;collapsible=0;childLayout=tableLayout;fontSize=16;rounded=0;fontColor=#464F55;strokeColor=#464F55;" parent="1" vertex="1">
          <mxGeometry x="309.99999999999994" y="895.67" width="206.69249999999988" height="139.52750000000003" as="geometry" />
        </mxCell>
        <mxCell id="e-ZZepIqZLMy_GuxkdO2-31" value="" style="shape=tableRow;horizontal=0;startSize=0;swimlaneHead=0;swimlaneBody=0;strokeColor=inherit;top=0;left=0;bottom=0;right=0;collapsible=0;dropTarget=0;fillColor=none;points=[[0,0.5],[1,0.5]];portConstraint=eastwest;fontSize=16;fontColor=#464F55;" parent="e-ZZepIqZLMy_GuxkdO2-30" vertex="1">
          <mxGeometry width="206.69249999999988" height="20" as="geometry" />
        </mxCell>
        <mxCell id="e-ZZepIqZLMy_GuxkdO2-32" value="&lt;font style=&quot;font-size: 11px;&quot;&gt;0&lt;/font&gt;" style="shape=partialRectangle;html=1;whiteSpace=wrap;connectable=0;strokeColor=inherit;overflow=hidden;fillColor=none;top=0;left=0;bottom=0;right=0;pointerEvents=1;fontSize=11;verticalAlign=middle;align=center;spacing=0;fontColor=#464F55;" parent="e-ZZepIqZLMy_GuxkdO2-31" vertex="1">
          <mxGeometry width="54" height="20" as="geometry">
            <mxRectangle width="54" height="20" as="alternateBounds" />
          </mxGeometry>
        </mxCell>
        <mxCell id="e-ZZepIqZLMy_GuxkdO2-33" value="&lt;font style=&quot;font-size: 11px;&quot;&gt;No instances&lt;/font&gt;" style="shape=partialRectangle;html=1;whiteSpace=wrap;connectable=0;strokeColor=inherit;overflow=hidden;fillColor=none;top=0;left=0;bottom=0;right=0;pointerEvents=1;fontSize=11;verticalAlign=middle;align=left;spacing=0;spacingLeft=2;fontColor=#464F55;" parent="e-ZZepIqZLMy_GuxkdO2-31" vertex="1">
          <mxGeometry x="54" width="153" height="20" as="geometry">
            <mxRectangle width="153" height="20" as="alternateBounds" />
          </mxGeometry>
        </mxCell>
        <mxCell id="e-ZZepIqZLMy_GuxkdO2-35" value="" style="shape=tableRow;horizontal=0;startSize=0;swimlaneHead=0;swimlaneBody=0;strokeColor=inherit;top=0;left=0;bottom=0;right=0;collapsible=0;dropTarget=0;fillColor=none;points=[[0,0.5],[1,0.5]];portConstraint=eastwest;fontSize=16;fontColor=#464F55;" parent="e-ZZepIqZLMy_GuxkdO2-30" vertex="1">
          <mxGeometry y="20" width="206.69249999999988" height="20" as="geometry" />
        </mxCell>
        <mxCell id="e-ZZepIqZLMy_GuxkdO2-36" value="0..1" style="shape=partialRectangle;html=1;whiteSpace=wrap;connectable=0;strokeColor=inherit;overflow=hidden;fillColor=none;top=0;left=0;bottom=0;right=0;pointerEvents=1;fontSize=11;verticalAlign=middle;align=center;spacing=0;fontColor=#464F55;" parent="e-ZZepIqZLMy_GuxkdO2-35" vertex="1">
          <mxGeometry width="54" height="20" as="geometry">
            <mxRectangle width="54" height="20" as="alternateBounds" />
          </mxGeometry>
        </mxCell>
        <mxCell id="e-ZZepIqZLMy_GuxkdO2-37" value="No instances or one instance" style="shape=partialRectangle;html=1;whiteSpace=wrap;connectable=0;strokeColor=inherit;overflow=hidden;fillColor=none;top=0;left=0;bottom=0;right=0;pointerEvents=1;fontSize=11;verticalAlign=middle;align=left;spacing=0;spacingLeft=2;fontColor=#464F55;" parent="e-ZZepIqZLMy_GuxkdO2-35" vertex="1">
          <mxGeometry x="54" width="153" height="20" as="geometry">
            <mxRectangle width="153" height="20" as="alternateBounds" />
          </mxGeometry>
        </mxCell>
        <mxCell id="e-ZZepIqZLMy_GuxkdO2-39" value="" style="shape=tableRow;horizontal=0;startSize=0;swimlaneHead=0;swimlaneBody=0;strokeColor=inherit;top=0;left=0;bottom=0;right=0;collapsible=0;dropTarget=0;fillColor=none;points=[[0,0.5],[1,0.5]];portConstraint=eastwest;fontSize=16;fontColor=#464F55;" parent="e-ZZepIqZLMy_GuxkdO2-30" vertex="1">
          <mxGeometry y="40" width="206.69249999999988" height="20" as="geometry" />
        </mxCell>
        <mxCell id="e-ZZepIqZLMy_GuxkdO2-40" value="1" style="shape=partialRectangle;html=1;whiteSpace=wrap;connectable=0;strokeColor=inherit;overflow=hidden;fillColor=none;top=0;left=0;bottom=0;right=0;pointerEvents=1;fontSize=11;verticalAlign=middle;align=center;spacing=0;fontColor=#464F55;" parent="e-ZZepIqZLMy_GuxkdO2-39" vertex="1">
          <mxGeometry width="54" height="20" as="geometry">
            <mxRectangle width="54" height="20" as="alternateBounds" />
          </mxGeometry>
        </mxCell>
        <mxCell id="e-ZZepIqZLMy_GuxkdO2-41" value="Exactly one instance" style="shape=partialRectangle;html=1;whiteSpace=wrap;connectable=0;strokeColor=inherit;overflow=hidden;fillColor=none;top=0;left=0;bottom=0;right=0;pointerEvents=1;fontSize=11;verticalAlign=middle;align=left;spacing=0;spacingLeft=2;fontColor=#464F55;" parent="e-ZZepIqZLMy_GuxkdO2-39" vertex="1">
          <mxGeometry x="54" width="153" height="20" as="geometry">
            <mxRectangle width="153" height="20" as="alternateBounds" />
          </mxGeometry>
        </mxCell>
        <mxCell id="e-ZZepIqZLMy_GuxkdO2-72" style="shape=tableRow;horizontal=0;startSize=0;swimlaneHead=0;swimlaneBody=0;strokeColor=inherit;top=0;left=0;bottom=0;right=0;collapsible=0;dropTarget=0;fillColor=none;points=[[0,0.5],[1,0.5]];portConstraint=eastwest;fontSize=16;fontColor=#464F55;" parent="e-ZZepIqZLMy_GuxkdO2-30" vertex="1">
          <mxGeometry y="60" width="206.69249999999988" height="20" as="geometry" />
        </mxCell>
        <mxCell id="e-ZZepIqZLMy_GuxkdO2-73" value="1..1" style="shape=partialRectangle;html=1;whiteSpace=wrap;connectable=0;strokeColor=inherit;overflow=hidden;fillColor=none;top=0;left=0;bottom=0;right=0;pointerEvents=1;fontSize=11;verticalAlign=middle;align=center;spacing=0;fontColor=#464F55;" parent="e-ZZepIqZLMy_GuxkdO2-72" vertex="1">
          <mxGeometry width="54" height="20" as="geometry">
            <mxRectangle width="54" height="20" as="alternateBounds" />
          </mxGeometry>
        </mxCell>
        <mxCell id="e-ZZepIqZLMy_GuxkdO2-74" value="Exactly one instance" style="shape=partialRectangle;html=1;whiteSpace=wrap;connectable=0;strokeColor=inherit;overflow=hidden;fillColor=none;top=0;left=0;bottom=0;right=0;pointerEvents=1;fontSize=11;verticalAlign=middle;align=left;spacing=0;spacingLeft=2;fontColor=#464F55;" parent="e-ZZepIqZLMy_GuxkdO2-72" vertex="1">
          <mxGeometry x="54" width="153" height="20" as="geometry">
            <mxRectangle width="153" height="20" as="alternateBounds" />
          </mxGeometry>
        </mxCell>
        <mxCell id="e-ZZepIqZLMy_GuxkdO2-69" style="shape=tableRow;horizontal=0;startSize=0;swimlaneHead=0;swimlaneBody=0;strokeColor=inherit;top=0;left=0;bottom=0;right=0;collapsible=0;dropTarget=0;fillColor=none;points=[[0,0.5],[1,0.5]];portConstraint=eastwest;fontSize=16;fontColor=#464F55;" parent="e-ZZepIqZLMy_GuxkdO2-30" vertex="1">
          <mxGeometry y="80" width="206.69249999999988" height="20" as="geometry" />
        </mxCell>
        <mxCell id="e-ZZepIqZLMy_GuxkdO2-70" value="0..*" style="shape=partialRectangle;html=1;whiteSpace=wrap;connectable=0;strokeColor=inherit;overflow=hidden;fillColor=none;top=0;left=0;bottom=0;right=0;pointerEvents=1;fontSize=11;verticalAlign=middle;align=center;spacing=0;fontColor=#464F55;" parent="e-ZZepIqZLMy_GuxkdO2-69" vertex="1">
          <mxGeometry width="54" height="20" as="geometry">
            <mxRectangle width="54" height="20" as="alternateBounds" />
          </mxGeometry>
        </mxCell>
        <mxCell id="e-ZZepIqZLMy_GuxkdO2-71" value="Zero or more instances" style="shape=partialRectangle;html=1;whiteSpace=wrap;connectable=0;strokeColor=inherit;overflow=hidden;fillColor=none;top=0;left=0;bottom=0;right=0;pointerEvents=1;fontSize=11;verticalAlign=middle;align=left;spacing=0;spacingLeft=2;fontColor=#464F55;" parent="e-ZZepIqZLMy_GuxkdO2-69" vertex="1">
          <mxGeometry x="54" width="153" height="20" as="geometry">
            <mxRectangle width="153" height="20" as="alternateBounds" />
          </mxGeometry>
        </mxCell>
        <mxCell id="e-ZZepIqZLMy_GuxkdO2-66" style="shape=tableRow;horizontal=0;startSize=0;swimlaneHead=0;swimlaneBody=0;strokeColor=inherit;top=0;left=0;bottom=0;right=0;collapsible=0;dropTarget=0;fillColor=none;points=[[0,0.5],[1,0.5]];portConstraint=eastwest;fontSize=16;fontColor=#464F55;" parent="e-ZZepIqZLMy_GuxkdO2-30" vertex="1">
          <mxGeometry y="100" width="206.69249999999988" height="20" as="geometry" />
        </mxCell>
        <mxCell id="e-ZZepIqZLMy_GuxkdO2-67" value="*" style="shape=partialRectangle;html=1;whiteSpace=wrap;connectable=0;strokeColor=inherit;overflow=hidden;fillColor=none;top=0;left=0;bottom=0;right=0;pointerEvents=1;fontSize=11;verticalAlign=middle;align=center;spacing=0;fontColor=#464F55;" parent="e-ZZepIqZLMy_GuxkdO2-66" vertex="1">
          <mxGeometry width="54" height="20" as="geometry">
            <mxRectangle width="54" height="20" as="alternateBounds" />
          </mxGeometry>
        </mxCell>
        <mxCell id="e-ZZepIqZLMy_GuxkdO2-68" value="Zero or more instances" style="shape=partialRectangle;html=1;whiteSpace=wrap;connectable=0;strokeColor=inherit;overflow=hidden;fillColor=none;top=0;left=0;bottom=0;right=0;pointerEvents=1;fontSize=11;verticalAlign=middle;align=left;spacing=0;spacingLeft=2;fontColor=#464F55;" parent="e-ZZepIqZLMy_GuxkdO2-66" vertex="1">
          <mxGeometry x="54" width="153" height="20" as="geometry">
            <mxRectangle width="153" height="20" as="alternateBounds" />
          </mxGeometry>
        </mxCell>
        <mxCell id="e-ZZepIqZLMy_GuxkdO2-63" style="shape=tableRow;horizontal=0;startSize=0;swimlaneHead=0;swimlaneBody=0;strokeColor=inherit;top=0;left=0;bottom=0;right=0;collapsible=0;dropTarget=0;fillColor=none;points=[[0,0.5],[1,0.5]];portConstraint=eastwest;fontSize=16;fontColor=#464F55;" parent="e-ZZepIqZLMy_GuxkdO2-30" vertex="1">
          <mxGeometry y="120" width="206.69249999999988" height="20" as="geometry" />
        </mxCell>
        <mxCell id="e-ZZepIqZLMy_GuxkdO2-64" value="1..*" style="shape=partialRectangle;html=1;whiteSpace=wrap;connectable=0;strokeColor=inherit;overflow=hidden;fillColor=none;top=0;left=0;bottom=0;right=0;pointerEvents=1;fontSize=11;verticalAlign=middle;align=center;spacing=0;fontColor=#464F55;" parent="e-ZZepIqZLMy_GuxkdO2-63" vertex="1">
          <mxGeometry width="54" height="20" as="geometry">
            <mxRectangle width="54" height="20" as="alternateBounds" />
          </mxGeometry>
        </mxCell>
        <mxCell id="e-ZZepIqZLMy_GuxkdO2-65" value="One or more instances" style="shape=partialRectangle;html=1;whiteSpace=wrap;connectable=0;strokeColor=inherit;overflow=hidden;fillColor=none;top=0;left=0;bottom=0;right=0;pointerEvents=1;fontSize=11;verticalAlign=middle;align=left;spacing=0;spacingLeft=2;fontColor=#464F55;" parent="e-ZZepIqZLMy_GuxkdO2-63" vertex="1">
          <mxGeometry x="54" width="153" height="20" as="geometry">
            <mxRectangle width="153" height="20" as="alternateBounds" />
          </mxGeometry>
        </mxCell>
        <mxCell id="e-ZZepIqZLMy_GuxkdO2-47" value="&lt;font color=&quot;#ffffff&quot;&gt;&lt;br&gt;GeographicLocation&lt;/font&gt;" style="swimlane;fontStyle=1;align=center;verticalAlign=top;childLayout=stackLayout;horizontal=1;startSize=39;horizontalStack=0;resizeParent=1;resizeParentMax=0;resizeLast=0;collapsible=1;marginBottom=0;whiteSpace=wrap;html=1;rounded=1;strokeColor=#464F55;fillColor=#2C6879;movable=0;resizable=0;rotatable=0;deletable=0;editable=0;locked=1;connectable=0;" parent="1" vertex="1">
          <mxGeometry x="510.33000000000004" y="277.17" width="160" height="124.79" as="geometry" />
        </mxCell>
        <mxCell id="e-ZZepIqZLMy_GuxkdO2-48" value="&lt;font color=&quot;#464f55&quot;&gt;- __latitude: float&lt;br&gt;- __longitude: float&lt;/font&gt;" style="text;strokeColor=none;fillColor=none;align=left;verticalAlign=top;spacingLeft=4;spacingRight=4;overflow=hidden;rotatable=0;points=[[0,0.5],[1,0.5]];portConstraint=eastwest;whiteSpace=wrap;html=1;rounded=1;movable=0;resizable=0;deletable=0;editable=0;locked=1;connectable=0;" parent="e-ZZepIqZLMy_GuxkdO2-47" vertex="1">
          <mxGeometry y="39" width="160" height="39.74" as="geometry" />
        </mxCell>
        <mxCell id="e-ZZepIqZLMy_GuxkdO2-49" value="" style="line;strokeWidth=1;fillColor=none;align=left;verticalAlign=middle;spacingTop=-1;spacingLeft=3;spacingRight=3;rotatable=0;labelPosition=right;points=[];portConstraint=eastwest;strokeColor=inherit;movable=0;resizable=0;deletable=0;editable=0;locked=1;connectable=0;" parent="e-ZZepIqZLMy_GuxkdO2-47" vertex="1">
          <mxGeometry y="78.74000000000001" width="160" height="8" as="geometry" />
        </mxCell>
        <mxCell id="e-ZZepIqZLMy_GuxkdO2-50" value="&amp;nbsp;" style="text;strokeColor=none;fillColor=none;align=left;verticalAlign=top;spacingLeft=4;spacingRight=4;overflow=hidden;rotatable=0;points=[[0,0.5],[1,0.5]];portConstraint=eastwest;whiteSpace=wrap;html=1;movable=0;resizable=0;deletable=0;editable=0;locked=1;connectable=0;" parent="e-ZZepIqZLMy_GuxkdO2-47" vertex="1">
          <mxGeometry y="86.74000000000001" width="160" height="38.05" as="geometry" />
        </mxCell>
        <mxCell id="e-ZZepIqZLMy_GuxkdO2-76" value="" style="html=1;whiteSpace=wrap;rounded=1;arcSize=12;absoluteArcSize=1;fillColor=none;fontColor=#464F55;strokeColor=#464F55;" parent="1" vertex="1">
          <mxGeometry x="551.18" y="816.94" width="265.75" height="344.48" as="geometry" />
        </mxCell>
        <mxCell id="e-ZZepIqZLMy_GuxkdO2-77" value="Visibility" style="html=1;whiteSpace=wrap;rounded=1;arcSize=12;absoluteArcSize=1;fontColor=#464F55;strokeColor=#464F55;" parent="1" vertex="1">
          <mxGeometry x="728.355" y="816.935" width="88.58" height="19.68" as="geometry" />
        </mxCell>
        <mxCell id="e-ZZepIqZLMy_GuxkdO2-78" value="" style="shape=table;startSize=0;container=1;collapsible=0;childLayout=tableLayout;fontSize=16;fontColor=#464F55;strokeColor=#464F55;" parent="1" vertex="1">
          <mxGeometry x="580.6324999999998" y="895.6624999999999" width="206.69249999999988" height="79.52750000000003" as="geometry" />
        </mxCell>
        <mxCell id="e-ZZepIqZLMy_GuxkdO2-79" value="" style="shape=tableRow;horizontal=0;startSize=0;swimlaneHead=0;swimlaneBody=0;strokeColor=inherit;top=0;left=0;bottom=0;right=0;collapsible=0;dropTarget=0;fillColor=none;points=[[0,0.5],[1,0.5]];portConstraint=eastwest;fontSize=16;fontColor=#464F55;" parent="e-ZZepIqZLMy_GuxkdO2-78" vertex="1">
          <mxGeometry width="206.69249999999988" height="20" as="geometry" />
        </mxCell>
        <mxCell id="e-ZZepIqZLMy_GuxkdO2-80" value="&lt;font style=&quot;font-size: 11px;&quot;&gt;+&lt;/font&gt;" style="shape=partialRectangle;html=1;whiteSpace=wrap;connectable=0;strokeColor=inherit;overflow=hidden;fillColor=none;top=0;left=0;bottom=0;right=0;pointerEvents=1;fontSize=11;verticalAlign=middle;align=center;spacing=0;fontColor=#464F55;" parent="e-ZZepIqZLMy_GuxkdO2-79" vertex="1">
          <mxGeometry width="60" height="20" as="geometry">
            <mxRectangle width="60" height="20" as="alternateBounds" />
          </mxGeometry>
        </mxCell>
        <mxCell id="e-ZZepIqZLMy_GuxkdO2-81" value="&lt;font style=&quot;font-size: 11px;&quot;&gt;Public&lt;/font&gt;" style="shape=partialRectangle;html=1;whiteSpace=wrap;connectable=0;strokeColor=inherit;overflow=hidden;fillColor=none;top=0;left=0;bottom=0;right=0;pointerEvents=1;fontSize=11;verticalAlign=middle;align=left;spacing=0;spacingLeft=2;fontColor=#464F55;" parent="e-ZZepIqZLMy_GuxkdO2-79" vertex="1">
          <mxGeometry x="60" width="147" height="20" as="geometry">
            <mxRectangle width="147" height="20" as="alternateBounds" />
          </mxGeometry>
        </mxCell>
        <mxCell id="e-ZZepIqZLMy_GuxkdO2-82" value="" style="shape=tableRow;horizontal=0;startSize=0;swimlaneHead=0;swimlaneBody=0;strokeColor=inherit;top=0;left=0;bottom=0;right=0;collapsible=0;dropTarget=0;fillColor=none;points=[[0,0.5],[1,0.5]];portConstraint=eastwest;fontSize=16;fontColor=#464F55;" parent="e-ZZepIqZLMy_GuxkdO2-78" vertex="1">
          <mxGeometry y="20" width="206.69249999999988" height="20" as="geometry" />
        </mxCell>
        <mxCell id="e-ZZepIqZLMy_GuxkdO2-83" value="-" style="shape=partialRectangle;html=1;whiteSpace=wrap;connectable=0;strokeColor=inherit;overflow=hidden;fillColor=none;top=0;left=0;bottom=0;right=0;pointerEvents=1;fontSize=11;verticalAlign=middle;align=center;spacing=0;fontColor=#464F55;" parent="e-ZZepIqZLMy_GuxkdO2-82" vertex="1">
          <mxGeometry width="60" height="20" as="geometry">
            <mxRectangle width="60" height="20" as="alternateBounds" />
          </mxGeometry>
        </mxCell>
        <mxCell id="e-ZZepIqZLMy_GuxkdO2-84" value="Private" style="shape=partialRectangle;html=1;whiteSpace=wrap;connectable=0;strokeColor=inherit;overflow=hidden;fillColor=none;top=0;left=0;bottom=0;right=0;pointerEvents=1;fontSize=11;verticalAlign=middle;align=left;spacing=0;spacingLeft=2;fontColor=#464F55;" parent="e-ZZepIqZLMy_GuxkdO2-82" vertex="1">
          <mxGeometry x="60" width="147" height="20" as="geometry">
            <mxRectangle width="147" height="20" as="alternateBounds" />
          </mxGeometry>
        </mxCell>
        <mxCell id="e-ZZepIqZLMy_GuxkdO2-85" value="" style="shape=tableRow;horizontal=0;startSize=0;swimlaneHead=0;swimlaneBody=0;strokeColor=inherit;top=0;left=0;bottom=0;right=0;collapsible=0;dropTarget=0;fillColor=none;points=[[0,0.5],[1,0.5]];portConstraint=eastwest;fontSize=16;fontColor=#464F55;" parent="e-ZZepIqZLMy_GuxkdO2-78" vertex="1">
          <mxGeometry y="40" width="206.69249999999988" height="20" as="geometry" />
        </mxCell>
        <mxCell id="e-ZZepIqZLMy_GuxkdO2-86" value="#" style="shape=partialRectangle;html=1;whiteSpace=wrap;connectable=0;strokeColor=inherit;overflow=hidden;fillColor=none;top=0;left=0;bottom=0;right=0;pointerEvents=1;fontSize=11;verticalAlign=middle;align=center;spacing=0;fontColor=#464F55;" parent="e-ZZepIqZLMy_GuxkdO2-85" vertex="1">
          <mxGeometry width="60" height="20" as="geometry">
            <mxRectangle width="60" height="20" as="alternateBounds" />
          </mxGeometry>
        </mxCell>
        <mxCell id="e-ZZepIqZLMy_GuxkdO2-87" value="Protected" style="shape=partialRectangle;html=1;whiteSpace=wrap;connectable=0;strokeColor=inherit;overflow=hidden;fillColor=none;top=0;left=0;bottom=0;right=0;pointerEvents=1;fontSize=11;verticalAlign=middle;align=left;spacing=0;spacingLeft=2;fontColor=#464F55;" parent="e-ZZepIqZLMy_GuxkdO2-85" vertex="1">
          <mxGeometry x="60" width="147" height="20" as="geometry">
            <mxRectangle width="147" height="20" as="alternateBounds" />
          </mxGeometry>
        </mxCell>
        <mxCell id="e-ZZepIqZLMy_GuxkdO2-88" style="shape=tableRow;horizontal=0;startSize=0;swimlaneHead=0;swimlaneBody=0;strokeColor=inherit;top=0;left=0;bottom=0;right=0;collapsible=0;dropTarget=0;fillColor=none;points=[[0,0.5],[1,0.5]];portConstraint=eastwest;fontSize=16;fontColor=#464F55;" parent="e-ZZepIqZLMy_GuxkdO2-78" vertex="1">
          <mxGeometry y="60" width="206.69249999999988" height="20" as="geometry" />
        </mxCell>
        <mxCell id="e-ZZepIqZLMy_GuxkdO2-89" value="~" style="shape=partialRectangle;html=1;whiteSpace=wrap;connectable=0;strokeColor=inherit;overflow=hidden;fillColor=none;top=0;left=0;bottom=0;right=0;pointerEvents=1;fontSize=11;verticalAlign=middle;align=center;spacing=0;fontColor=#464F55;" parent="e-ZZepIqZLMy_GuxkdO2-88" vertex="1">
          <mxGeometry width="60" height="20" as="geometry">
            <mxRectangle width="60" height="20" as="alternateBounds" />
          </mxGeometry>
        </mxCell>
        <mxCell id="e-ZZepIqZLMy_GuxkdO2-90" value="Package" style="shape=partialRectangle;html=1;whiteSpace=wrap;connectable=0;strokeColor=inherit;overflow=hidden;fillColor=none;top=0;left=0;bottom=0;right=0;pointerEvents=1;fontSize=11;verticalAlign=middle;align=left;spacing=0;spacingLeft=2;fontColor=#464F55;" parent="e-ZZepIqZLMy_GuxkdO2-88" vertex="1">
          <mxGeometry x="60" width="147" height="20" as="geometry">
            <mxRectangle width="147" height="20" as="alternateBounds" />
          </mxGeometry>
        </mxCell>
        <mxCell id="necLX3WFX3FQcM-goMtb-6" value="&lt;p style=&quot;line-height: 100%;&quot;&gt;Multiplicity can be:&lt;br&gt;&lt;/p&gt;&lt;ul style=&quot;line-height: 100%;&quot;&gt;&lt;li&gt;a number&lt;/li&gt;&lt;li&gt;range&lt;/li&gt;&lt;li&gt;asterisk symbol&lt;/li&gt;&lt;/ul&gt;&lt;p&gt;&lt;/p&gt;" style="text;html=1;strokeColor=#464F55;fillColor=none;align=left;verticalAlign=middle;whiteSpace=wrap;rounded=0;fontColor=#464F55;" parent="1" vertex="1">
          <mxGeometry x="310" y="1043.3" width="207" height="78.74" as="geometry" />
        </mxCell>
        <mxCell id="necLX3WFX3FQcM-goMtb-7" value="&lt;font color=&quot;#ffffff&quot;&gt;&lt;i&gt;&amp;lt;&amp;lt;abstractclass&amp;gt;&amp;gt;&lt;br&gt;MeteorologicalSensor&lt;/i&gt;&lt;/font&gt;" style="swimlane;fontStyle=1;align=center;verticalAlign=top;childLayout=stackLayout;horizontal=1;startSize=39;horizontalStack=0;resizeParent=1;resizeParentMax=0;resizeLast=0;collapsible=1;marginBottom=0;whiteSpace=wrap;html=1;rounded=1;strokeColor=#464F55;fillColor=#2C6879;movable=0;resizable=0;rotatable=0;deletable=0;editable=0;locked=1;connectable=0;" parent="1" vertex="1">
          <mxGeometry x="156" y="277.17" width="248.58" height="124.79" as="geometry" />
        </mxCell>
        <mxCell id="necLX3WFX3FQcM-goMtb-8" value="&lt;font color=&quot;#464f55&quot;&gt;+ place: GeographicLocation()&lt;br&gt;+ altitude: int&lt;/font&gt;" style="text;strokeColor=none;fillColor=none;align=left;verticalAlign=top;spacingLeft=4;spacingRight=4;overflow=hidden;rotatable=0;points=[[0,0.5],[1,0.5]];portConstraint=eastwest;whiteSpace=wrap;html=1;rounded=1;movable=0;resizable=0;deletable=0;editable=0;locked=1;connectable=0;" parent="necLX3WFX3FQcM-goMtb-7" vertex="1">
          <mxGeometry y="39" width="248.58" height="39.74" as="geometry" />
        </mxCell>
        <mxCell id="necLX3WFX3FQcM-goMtb-9" value="" style="line;strokeWidth=1;fillColor=none;align=left;verticalAlign=middle;spacingTop=-1;spacingLeft=3;spacingRight=3;rotatable=0;labelPosition=right;points=[];portConstraint=eastwest;strokeColor=inherit;movable=0;resizable=0;deletable=0;editable=0;locked=1;connectable=0;" parent="necLX3WFX3FQcM-goMtb-7" vertex="1">
          <mxGeometry y="78.74000000000001" width="248.58" height="8" as="geometry" />
        </mxCell>
        <mxCell id="necLX3WFX3FQcM-goMtb-10" value="&lt;font color=&quot;#464f55&quot;&gt;+ measure_temperature(temperature): float&lt;/font&gt;" style="text;strokeColor=none;fillColor=none;align=left;verticalAlign=top;spacingLeft=4;spacingRight=4;overflow=hidden;rotatable=0;points=[[0,0.5],[1,0.5]];portConstraint=eastwest;whiteSpace=wrap;html=1;movable=0;resizable=0;deletable=0;editable=0;locked=1;connectable=0;" parent="necLX3WFX3FQcM-goMtb-7" vertex="1">
          <mxGeometry y="86.74000000000001" width="248.58" height="38.05" as="geometry" />
        </mxCell>
        <mxCell id="necLX3WFX3FQcM-goMtb-20" style="edgeStyle=orthogonalEdgeStyle;rounded=0;orthogonalLoop=1;jettySize=auto;html=1;entryX=0.432;entryY=1.017;entryDx=0;entryDy=0;entryPerimeter=0;endArrow=block;endFill=0;strokeColor=#464F55;dashed=1;movable=0;resizable=0;rotatable=0;deletable=0;editable=0;locked=1;connectable=0;" parent="1" source="necLX3WFX3FQcM-goMtb-11" target="necLX3WFX3FQcM-goMtb-10" edge="1">
          <mxGeometry relative="1" as="geometry">
            <Array as="points">
              <mxPoint x="263.40999999999997" y="437.79" />
              <mxPoint x="263.40999999999997" y="437.79" />
            </Array>
          </mxGeometry>
        </mxCell>
        <mxCell id="necLX3WFX3FQcM-goMtb-11" value="&lt;font color=&quot;#ffffff&quot;&gt;&lt;br&gt;MeteorologicalSensorMetric&lt;/font&gt;" style="swimlane;fontStyle=1;align=center;verticalAlign=top;childLayout=stackLayout;horizontal=1;startSize=39;horizontalStack=0;resizeParent=1;resizeParentMax=0;resizeLast=0;collapsible=1;marginBottom=0;whiteSpace=wrap;html=1;rounded=1;strokeColor=#464F55;fillColor=#2C6879;movable=0;resizable=0;rotatable=0;deletable=0;editable=0;locked=1;connectable=0;" parent="1" vertex="1">
          <mxGeometry x="156.0025" y="474.0225" width="248.58" height="124.79" as="geometry" />
        </mxCell>
        <mxCell id="necLX3WFX3FQcM-goMtb-12" value="&lt;font color=&quot;#464f55&quot;&gt;+ place: Geographic&lt;/font&gt;Location&lt;font color=&quot;#464f55&quot;&gt;()&lt;br&gt;+ altitude: int&lt;/font&gt;" style="text;strokeColor=none;fillColor=none;align=left;verticalAlign=top;spacingLeft=4;spacingRight=4;overflow=hidden;rotatable=0;points=[[0,0.5],[1,0.5]];portConstraint=eastwest;whiteSpace=wrap;html=1;rounded=1;movable=0;resizable=0;deletable=0;editable=0;locked=1;connectable=0;" parent="necLX3WFX3FQcM-goMtb-11" vertex="1">
          <mxGeometry y="39" width="248.58" height="39.74" as="geometry" />
        </mxCell>
        <mxCell id="necLX3WFX3FQcM-goMtb-13" value="" style="line;strokeWidth=1;fillColor=none;align=left;verticalAlign=middle;spacingTop=-1;spacingLeft=3;spacingRight=3;rotatable=0;labelPosition=right;points=[];portConstraint=eastwest;strokeColor=inherit;movable=0;resizable=0;deletable=0;editable=0;locked=1;connectable=0;" parent="necLX3WFX3FQcM-goMtb-11" vertex="1">
          <mxGeometry y="78.74000000000001" width="248.58" height="8" as="geometry" />
        </mxCell>
        <mxCell id="necLX3WFX3FQcM-goMtb-14" value="&lt;font color=&quot;#464f55&quot;&gt;+ measure_temperature(temperature): float&lt;/font&gt;" style="text;strokeColor=none;fillColor=none;align=left;verticalAlign=top;spacingLeft=4;spacingRight=4;overflow=hidden;rotatable=0;points=[[0,0.5],[1,0.5]];portConstraint=eastwest;whiteSpace=wrap;html=1;movable=0;resizable=0;deletable=0;editable=0;locked=1;connectable=0;" parent="necLX3WFX3FQcM-goMtb-11" vertex="1">
          <mxGeometry y="86.74000000000001" width="248.58" height="38.05" as="geometry" />
        </mxCell>
        <mxCell id="necLX3WFX3FQcM-goMtb-21" style="edgeStyle=orthogonalEdgeStyle;rounded=0;orthogonalLoop=1;jettySize=auto;html=1;entryX=0.595;entryY=0.996;entryDx=0;entryDy=0;entryPerimeter=0;strokeColor=#464F55;endArrow=block;endFill=0;dashed=1;movable=0;resizable=0;rotatable=0;deletable=0;editable=0;locked=1;connectable=0;" parent="1" source="necLX3WFX3FQcM-goMtb-15" target="necLX3WFX3FQcM-goMtb-10" edge="1">
          <mxGeometry relative="1" as="geometry" />
        </mxCell>
        <mxCell id="necLX3WFX3FQcM-goMtb-15" value="&lt;font color=&quot;#ffffff&quot;&gt;&lt;br&gt;MeteorologicalSensorImperial&lt;/font&gt;" style="swimlane;fontStyle=1;align=center;verticalAlign=top;childLayout=stackLayout;horizontal=1;startSize=39;horizontalStack=0;resizeParent=1;resizeParentMax=0;resizeLast=0;collapsible=1;marginBottom=0;whiteSpace=wrap;html=1;rounded=1;strokeColor=#464F55;fillColor=#2C6879;movable=0;resizable=0;rotatable=0;deletable=0;editable=0;locked=1;connectable=0;" parent="1" vertex="1">
          <mxGeometry x="421.745" y="474.025" width="248.58" height="124.79" as="geometry" />
        </mxCell>
        <mxCell id="necLX3WFX3FQcM-goMtb-16" value="&lt;font color=&quot;#464f55&quot;&gt;+ place: Geographic&lt;/font&gt;Location&lt;font color=&quot;#464f55&quot;&gt;()&lt;br&gt;+ altitude: int&lt;/font&gt;" style="text;strokeColor=none;fillColor=none;align=left;verticalAlign=top;spacingLeft=4;spacingRight=4;overflow=hidden;rotatable=0;points=[[0,0.5],[1,0.5]];portConstraint=eastwest;whiteSpace=wrap;html=1;rounded=1;movable=0;resizable=0;deletable=0;editable=0;locked=1;connectable=0;" parent="necLX3WFX3FQcM-goMtb-15" vertex="1">
          <mxGeometry y="39" width="248.58" height="39.74" as="geometry" />
        </mxCell>
        <mxCell id="necLX3WFX3FQcM-goMtb-17" value="" style="line;strokeWidth=1;fillColor=none;align=left;verticalAlign=middle;spacingTop=-1;spacingLeft=3;spacingRight=3;rotatable=0;labelPosition=right;points=[];portConstraint=eastwest;strokeColor=inherit;movable=0;resizable=0;deletable=0;editable=0;locked=1;connectable=0;" parent="necLX3WFX3FQcM-goMtb-15" vertex="1">
          <mxGeometry y="78.74000000000001" width="248.58" height="8" as="geometry" />
        </mxCell>
        <mxCell id="necLX3WFX3FQcM-goMtb-18" value="&lt;font color=&quot;#464f55&quot;&gt;+ measure_temperature(temperature): float&lt;/font&gt;" style="text;strokeColor=none;fillColor=none;align=left;verticalAlign=top;spacingLeft=4;spacingRight=4;overflow=hidden;rotatable=0;points=[[0,0.5],[1,0.5]];portConstraint=eastwest;whiteSpace=wrap;html=1;movable=0;resizable=0;deletable=0;editable=0;locked=1;connectable=0;" parent="necLX3WFX3FQcM-goMtb-15" vertex="1">
          <mxGeometry y="86.74000000000001" width="248.58" height="38.05" as="geometry" />
        </mxCell>
        <mxCell id="necLX3WFX3FQcM-goMtb-22" style="edgeStyle=orthogonalEdgeStyle;rounded=0;orthogonalLoop=1;jettySize=auto;html=1;endArrow=diamondThin;endFill=0;jumpSize=6;endSize=10;startArrow=open;startFill=0;strokeColor=#464F55;movable=0;resizable=0;rotatable=0;deletable=0;editable=0;locked=1;connectable=0;" parent="1" source="e-ZZepIqZLMy_GuxkdO2-48" target="necLX3WFX3FQcM-goMtb-8" edge="1">
          <mxGeometry relative="1" as="geometry" />
        </mxCell>
        <mxCell id="necLX3WFX3FQcM-goMtb-23" value="&lt;font style=&quot;font-size: 14px;&quot;&gt;*&lt;/font&gt;" style="edgeLabel;html=1;align=center;verticalAlign=middle;resizable=0;points=[];fontColor=#464F55;movable=0;rotatable=0;deletable=0;editable=0;locked=1;connectable=0;" parent="necLX3WFX3FQcM-goMtb-22" vertex="1" connectable="0">
          <mxGeometry x="0.6806" y="1" relative="1" as="geometry">
            <mxPoint x="-4" y="-14" as="offset" />
          </mxGeometry>
        </mxCell>
        <mxCell id="necLX3WFX3FQcM-goMtb-24" value="1" style="edgeLabel;html=1;align=center;verticalAlign=middle;resizable=0;points=[];fontColor=#464F55;movable=0;rotatable=0;deletable=0;editable=0;locked=1;connectable=0;" parent="necLX3WFX3FQcM-goMtb-22" vertex="1" connectable="0">
          <mxGeometry x="-0.7166" relative="1" as="geometry">
            <mxPoint x="1" y="-15" as="offset" />
          </mxGeometry>
        </mxCell>
        <mxCell id="necLX3WFX3FQcM-goMtb-25" value="" style="rounded=0;whiteSpace=wrap;html=1;fillColor=none;strokeColor=#FF0000;opacity=70;" parent="1" vertex="1">
          <mxGeometry x="159.32" y="322" width="11" height="61.86" as="geometry" />
        </mxCell>
        <mxCell id="necLX3WFX3FQcM-goMtb-26" value="" style="rounded=0;whiteSpace=wrap;html=1;fillColor=none;strokeColor=#FF0000;opacity=70;" parent="1" vertex="1">
          <mxGeometry x="512" y="323" width="12" height="41" as="geometry" />
        </mxCell>
        <mxCell id="necLX3WFX3FQcM-goMtb-28" style="rounded=0;orthogonalLoop=1;jettySize=auto;html=1;entryX=0;entryY=0;entryDx=0;entryDy=0;strokeColor=#FF0000;exitX=0.99;exitY=0.921;exitDx=0;exitDy=0;exitPerimeter=0;opacity=70;" parent="1" source="necLX3WFX3FQcM-goMtb-27" target="necLX3WFX3FQcM-goMtb-25" edge="1">
          <mxGeometry relative="1" as="geometry" />
        </mxCell>
        <mxCell id="necLX3WFX3FQcM-goMtb-27" value="&lt;font color=&quot;#ff0000&quot;&gt;Public visibility&lt;/font&gt;" style="text;html=1;strokeColor=#FF0000;fillColor=none;align=center;verticalAlign=middle;whiteSpace=wrap;rounded=1;opacity=70;" parent="1" vertex="1">
          <mxGeometry x="49.21" y="285.43" width="88.58" height="30" as="geometry" />
        </mxCell>
        <mxCell id="necLX3WFX3FQcM-goMtb-29" style="rounded=0;orthogonalLoop=1;jettySize=auto;html=1;strokeColor=#FF0000;exitX=0.016;exitY=0.088;exitDx=0;exitDy=0;exitPerimeter=0;opacity=70;entryX=1;entryY=1;entryDx=0;entryDy=0;" parent="1" source="necLX3WFX3FQcM-goMtb-30" target="necLX3WFX3FQcM-goMtb-26" edge="1">
          <mxGeometry relative="1" as="geometry">
            <mxPoint x="512" y="325" as="targetPoint" />
          </mxGeometry>
        </mxCell>
        <mxCell id="necLX3WFX3FQcM-goMtb-30" value="&lt;font color=&quot;#ff0000&quot;&gt;Private visibility&lt;/font&gt;" style="text;html=1;strokeColor=#FF0000;fillColor=none;align=center;verticalAlign=middle;whiteSpace=wrap;rounded=1;opacity=70;" parent="1" vertex="1">
          <mxGeometry x="580.6325" y="412.91249999999997" width="88.58" height="30" as="geometry" />
        </mxCell>
        <mxCell id="necLX3WFX3FQcM-goMtb-31" style="rounded=0;orthogonalLoop=1;jettySize=auto;html=1;entryX=0;entryY=0;entryDx=0;entryDy=0;strokeColor=#FF0000;exitX=0.99;exitY=0.921;exitDx=0;exitDy=0;exitPerimeter=0;opacity=70;" parent="1" source="necLX3WFX3FQcM-goMtb-32" edge="1">
          <mxGeometry relative="1" as="geometry">
            <mxPoint x="159.3225" y="479.48249999999996" as="targetPoint" />
          </mxGeometry>
        </mxCell>
        <mxCell id="necLX3WFX3FQcM-goMtb-32" value="&lt;font color=&quot;#ff0000&quot;&gt;Class&lt;/font&gt;" style="text;html=1;strokeColor=#FF0000;fillColor=none;align=center;verticalAlign=middle;whiteSpace=wrap;rounded=1;opacity=70;" parent="1" vertex="1">
          <mxGeometry x="49.5325" y="442.91249999999997" width="88.58" height="30" as="geometry" />
        </mxCell>
        <mxCell id="necLX3WFX3FQcM-goMtb-33" style="rounded=0;orthogonalLoop=1;jettySize=auto;html=1;strokeColor=#FF0000;exitX=1;exitY=0.5;exitDx=0;exitDy=0;opacity=70;" parent="1" source="necLX3WFX3FQcM-goMtb-34" edge="1">
          <mxGeometry relative="1" as="geometry">
            <mxPoint x="197" y="502" as="targetPoint" />
          </mxGeometry>
        </mxCell>
        <mxCell id="necLX3WFX3FQcM-goMtb-34" value="&lt;font color=&quot;#ff0000&quot;&gt;Class name&lt;/font&gt;" style="text;html=1;strokeColor=#FF0000;fillColor=none;align=center;verticalAlign=middle;whiteSpace=wrap;rounded=1;opacity=70;" parent="1" vertex="1">
          <mxGeometry x="49.535" y="482.28499999999997" width="88.58" height="30" as="geometry" />
        </mxCell>
        <mxCell id="necLX3WFX3FQcM-goMtb-35" style="rounded=0;orthogonalLoop=1;jettySize=auto;html=1;strokeColor=#FF0000;exitX=1;exitY=0.5;exitDx=0;exitDy=0;opacity=70;" parent="1" source="necLX3WFX3FQcM-goMtb-36" edge="1">
          <mxGeometry relative="1" as="geometry">
            <mxPoint x="159" y="537" as="targetPoint" />
          </mxGeometry>
        </mxCell>
        <mxCell id="necLX3WFX3FQcM-goMtb-36" value="&lt;font color=&quot;#ff0000&quot;&gt;Class attributes&lt;/font&gt;" style="text;html=1;strokeColor=#FF0000;fillColor=none;align=center;verticalAlign=middle;whiteSpace=wrap;rounded=1;opacity=70;" parent="1" vertex="1">
          <mxGeometry x="49.537499999999994" y="521.4174999999999" width="88.58" height="30" as="geometry" />
        </mxCell>
        <mxCell id="necLX3WFX3FQcM-goMtb-37" style="rounded=0;orthogonalLoop=1;jettySize=auto;html=1;strokeColor=#FF0000;exitX=1;exitY=0.5;exitDx=0;exitDy=0;opacity=70;" parent="1" source="necLX3WFX3FQcM-goMtb-38" edge="1">
          <mxGeometry relative="1" as="geometry">
            <mxPoint x="159.0025" y="576.6025" as="targetPoint" />
          </mxGeometry>
        </mxCell>
        <mxCell id="necLX3WFX3FQcM-goMtb-38" value="&lt;font color=&quot;#ff0000&quot;&gt;Class methods&lt;/font&gt;" style="text;html=1;strokeColor=#FF0000;fillColor=none;align=center;verticalAlign=middle;whiteSpace=wrap;rounded=1;opacity=70;" parent="1" vertex="1">
          <mxGeometry x="49.53999999999999" y="561.0199999999999" width="88.58" height="30" as="geometry" />
        </mxCell>
        <mxCell id="necLX3WFX3FQcM-goMtb-39" value="&lt;font color=&quot;#ff0000&quot;&gt;Relationships&lt;/font&gt;" style="text;html=1;strokeColor=#FF0000;fillColor=none;align=center;verticalAlign=middle;whiteSpace=wrap;rounded=1;opacity=70;" parent="1" vertex="1">
          <mxGeometry x="421.74" y="383.86" width="78.74" height="30" as="geometry" />
        </mxCell>
        <mxCell id="necLX3WFX3FQcM-goMtb-40" style="rounded=0;orthogonalLoop=1;jettySize=auto;html=1;strokeColor=#FF0000;exitX=0.469;exitY=0.995;exitDx=0;exitDy=0;exitPerimeter=0;opacity=70;" parent="1" source="necLX3WFX3FQcM-goMtb-39" edge="1">
          <mxGeometry relative="1" as="geometry">
            <mxPoint x="461.9125" y="431.7025" as="sourcePoint" />
            <mxPoint x="459" y="437" as="targetPoint" />
          </mxGeometry>
        </mxCell>
        <mxCell id="necLX3WFX3FQcM-goMtb-41" style="rounded=0;orthogonalLoop=1;jettySize=auto;html=1;strokeColor=#FF0000;opacity=70;" parent="1" edge="1">
          <mxGeometry relative="1" as="geometry">
            <mxPoint x="459" y="383" as="sourcePoint" />
            <mxPoint x="459" y="337" as="targetPoint" />
          </mxGeometry>
        </mxCell>
        <mxCell id="necLX3WFX3FQcM-goMtb-42" style="rounded=0;orthogonalLoop=1;jettySize=auto;html=1;strokeColor=#FF0000;exitX=0.146;exitY=0.991;exitDx=0;exitDy=0;exitPerimeter=0;opacity=70;" parent="1" source="necLX3WFX3FQcM-goMtb-43" edge="1">
          <mxGeometry relative="1" as="geometry">
            <mxPoint x="516.6883" y="212.85167" as="sourcePoint" />
            <mxPoint x="498.74" y="310" as="targetPoint" />
          </mxGeometry>
        </mxCell>
        <mxCell id="necLX3WFX3FQcM-goMtb-43" value="&lt;font color=&quot;#ff0000&quot;&gt;Multiplicity:&lt;br&gt;&lt;div style=&quot;text-align: left;&quot;&gt;&lt;span style=&quot;background-color: initial;&quot;&gt;The class MeteorologicalSensor has exactly one GeographicLocation&lt;/span&gt;&lt;/div&gt;&lt;br&gt;&lt;/font&gt;" style="text;html=1;strokeColor=#FF0000;fillColor=none;align=center;verticalAlign=middle;whiteSpace=wrap;rounded=1;opacity=70;" parent="1" vertex="1">
          <mxGeometry x="500.48" y="118.11000000000001" width="127.95" height="88.59" as="geometry" />
        </mxCell>
        <mxCell id="necLX3WFX3FQcM-goMtb-44" value="" style="rounded=0;whiteSpace=wrap;html=1;fillColor=none;strokeColor=#FF0000;opacity=70;" parent="1" vertex="1">
          <mxGeometry x="491" y="310" width="12" height="21" as="geometry" />
        </mxCell>
        <mxCell id="necLX3WFX3FQcM-goMtb-45" value="" style="rounded=0;whiteSpace=wrap;html=1;fillColor=none;strokeColor=#FF0000;opacity=70;" parent="1" vertex="1">
          <mxGeometry x="413.00249999999994" y="311.0025" width="12" height="21" as="geometry" />
        </mxCell>
        <mxCell id="necLX3WFX3FQcM-goMtb-46" value="&lt;font color=&quot;#ff0000&quot;&gt;Multiplicity:&lt;br&gt;&lt;div style=&quot;text-align: left;&quot;&gt;&lt;span style=&quot;background-color: initial;&quot;&gt;At the same GeographicLocation there can be multiple MeteorologicalSensor[s]&lt;/span&gt;&lt;/div&gt;&lt;br&gt;&lt;/font&gt;" style="text;html=1;strokeColor=#FF0000;fillColor=none;align=center;verticalAlign=middle;whiteSpace=wrap;rounded=1;opacity=70;" parent="1" vertex="1">
          <mxGeometry x="314.96" y="118.11" width="137.79" height="88.59" as="geometry" />
        </mxCell>
        <mxCell id="necLX3WFX3FQcM-goMtb-47" style="rounded=0;orthogonalLoop=1;jettySize=auto;html=1;strokeColor=#FF0000;exitX=0.883;exitY=1.001;exitDx=0;exitDy=0;exitPerimeter=0;opacity=70;entryX=0.25;entryY=0;entryDx=0;entryDy=0;" parent="1" source="necLX3WFX3FQcM-goMtb-46" target="necLX3WFX3FQcM-goMtb-45" edge="1">
          <mxGeometry relative="1" as="geometry">
            <mxPoint x="431.00249999999994" y="206.7025" as="sourcePoint" />
            <mxPoint x="413.00249999999994" y="303.7025" as="targetPoint" />
          </mxGeometry>
        </mxCell>
        <mxCell id="necLX3WFX3FQcM-goMtb-48" value="&lt;font color=&quot;#ff0000&quot;&gt;Input datatype&lt;/font&gt;" style="text;html=1;strokeColor=#FF0000;fillColor=none;align=center;verticalAlign=middle;whiteSpace=wrap;rounded=1;opacity=70;" parent="1" vertex="1">
          <mxGeometry x="688.975" y="521.415" width="88.58" height="30" as="geometry" />
        </mxCell>
        <mxCell id="necLX3WFX3FQcM-goMtb-49" value="&lt;font color=&quot;#ff0000&quot;&gt;Output datatype&lt;/font&gt;" style="text;html=1;strokeColor=#FF0000;fillColor=none;align=center;verticalAlign=middle;whiteSpace=wrap;rounded=1;opacity=70;" parent="1" vertex="1">
          <mxGeometry x="688.9775" y="561.0174999999999" width="88.58" height="30" as="geometry" />
        </mxCell>
        <mxCell id="necLX3WFX3FQcM-goMtb-50" value="&lt;font color=&quot;#ff0000&quot;&gt;Input datatype&lt;/font&gt;" style="text;html=1;strokeColor=#FF0000;fillColor=none;align=center;verticalAlign=middle;whiteSpace=wrap;rounded=1;opacity=70;" parent="1" vertex="1">
          <mxGeometry x="688.9775" y="321.99749999999995" width="88.58" height="30" as="geometry" />
        </mxCell>
        <mxCell id="necLX3WFX3FQcM-goMtb-51" style="rounded=0;orthogonalLoop=1;jettySize=auto;html=1;strokeColor=#FF0000;exitX=0;exitY=0.5;exitDx=0;exitDy=0;opacity=70;" parent="1" source="necLX3WFX3FQcM-goMtb-49" edge="1">
          <mxGeometry relative="1" as="geometry">
            <mxPoint x="746.9725" y="435.86249999999995" as="sourcePoint" />
            <mxPoint x="659" y="576" as="targetPoint" />
          </mxGeometry>
        </mxCell>
        <mxCell id="necLX3WFX3FQcM-goMtb-52" style="rounded=0;orthogonalLoop=1;jettySize=auto;html=1;strokeColor=#FF0000;exitX=0;exitY=0.5;exitDx=0;exitDy=0;opacity=70;" parent="1" source="necLX3WFX3FQcM-goMtb-48" edge="1">
          <mxGeometry relative="1" as="geometry">
            <mxPoint x="756.8149999999999" y="445.7049999999999" as="sourcePoint" />
            <mxPoint x="591" y="528" as="targetPoint" />
          </mxGeometry>
        </mxCell>
        <mxCell id="necLX3WFX3FQcM-goMtb-53" style="rounded=0;orthogonalLoop=1;jettySize=auto;html=1;strokeColor=#FF0000;exitX=0;exitY=0.5;exitDx=0;exitDy=0;opacity=70;" parent="1" source="necLX3WFX3FQcM-goMtb-48" edge="1">
          <mxGeometry relative="1" as="geometry">
            <mxPoint x="748.0274999999999" y="504.7574999999999" as="sourcePoint" />
            <mxPoint x="502" y="541" as="targetPoint" />
          </mxGeometry>
        </mxCell>
        <mxCell id="necLX3WFX3FQcM-goMtb-54" style="rounded=0;orthogonalLoop=1;jettySize=auto;html=1;strokeColor=#FF0000;exitX=0;exitY=0.5;exitDx=0;exitDy=0;opacity=70;" parent="1" source="necLX3WFX3FQcM-goMtb-50" edge="1">
          <mxGeometry relative="1" as="geometry">
            <mxPoint x="728.3525" y="383.86249999999995" as="sourcePoint" />
            <mxPoint x="607" y="330" as="targetPoint" />
          </mxGeometry>
        </mxCell>
        <mxCell id="necLX3WFX3FQcM-goMtb-55" style="rounded=0;orthogonalLoop=1;jettySize=auto;html=1;strokeColor=#FF0000;exitX=0;exitY=0.5;exitDx=0;exitDy=0;opacity=70;" parent="1" source="necLX3WFX3FQcM-goMtb-50" edge="1">
          <mxGeometry relative="1" as="geometry">
            <mxPoint x="698.8425" y="346.8425" as="sourcePoint" />
            <mxPoint x="617" y="344" as="targetPoint" />
          </mxGeometry>
        </mxCell>
      </root>
    </mxGraphModel>
  </diagram>
</mxfile>
